<?xml version="1.0" encoding="utf-8"?>
<!-- Generator: Adobe Illustrator 27.5.0, SVG Export Plug-In . SVG Version: 6.00 Build 0)  -->
<svg version="1.1" xmlns="http://www.w3.org/2000/svg" xmlns:xlink="http://www.w3.org/1999/xlink" x="0px" y="0px"
	 viewBox="0 0 500 500" style="enable-background:new 0 0 500 500;" xml:space="preserve">
<g id="BACKGROUND">
	<rect style="fill:#FFFFFF;" width="500" height="500"/>
</g>
<g id="OBJECTS">
	<g>
		<g>
			<g>
				<path style="fill:#D1DCF2;" d="M93.663,304.142c0,0-13.943-12.675-12.675-29.575c1.267-16.9,5.493-23.238,17.745-38.025
					c12.253-14.788,21.125-24.083,2.958-39.293c-18.168-15.21-36.758-28.308-35.068-61.686c1.69-33.378,34.645-62.108,79.431-69.291
					s75.206-5.493,142.807,8.028c67.601,13.52,87.881,14.365,103.936,15.633c16.055,1.268,30.42,19.858,17.323,34.223
					c-13.098,14.365-37.181,29.153-25.35,41.828c11.83,12.675,36.335-1.268,54.926,2.958c18.59,4.225,32.955,15.633,21.97,28.308
					c-10.985,12.675-40.983,15.633-43.095,24.928c-2.113,9.295,6.76,11.83,18.168,16.055c11.408,4.225,23.238,23.66,17.323,32.11
					c-5.915,8.45-41.406,29.998-53.658,29.153c-12.253-0.845-55.348,2.535-65.488,0c-10.14-2.535-74.853,1.514-87.881-7.183
					c-13.028-8.697-61.686-15.633-76.051-9.718C156.616,288.509,114.788,321.465,93.663,304.142z"/>
				<g>
					<path style="fill:#D1DCF2;" d="M400.824,80.778c0,0-23.379-1.408-28.449-19.999s13.238-33.237,34.645-32.392
						c21.407,0.845,22.252,23.66,21.97,29.857C428.709,64.441,415.753,82.75,400.824,80.778z"/>
					<path style="fill:#D1DCF2;" d="M423.358,98.805c0,0-9.295-1.127-9.295-9.013c0-7.887,9.295-13.52,14.365-11.267
						c5.07,2.253,8.45,9.577,7.323,13.52C434.624,95.988,426.174,100.776,423.358,98.805z"/>
					<path style="fill:#D1DCF2;" d="M442.229,71.342c0,0-5.07,0-6.126-6.971c-1.056-6.971,6.126-8.239,9.718-6.126
						c3.591,2.112,3.591,4.647,3.591,7.394S445.539,72.117,442.229,71.342z"/>
				</g>
			</g>
			<g>
				<path style="fill:#FFFFFF;" d="M333.646,145.703c0,0-3.803-12.464,6.126-17.957c9.929-5.493,17.111,12.464,17.111,12.464
					s3.803-22.182,16.055-21.548c12.253,0.634,7.394,28.73,7.394,28.73s3.591-6.338,5.915-3.803
					c2.324,2.535-0.211,6.549-0.211,6.549s8.028-3.803,10.14,0.211c2.113,4.014-2.957,7.816-7.816,9.084s-62.953,1.69-62.953,1.69
					s-6.337-4.648-4.225-10.985C323.294,143.801,331.533,143.59,333.646,145.703z"/>
				<path style="fill:#EEEEEE;" d="M115.367,120.93c0,0-2.627-16.139,4.908-23.245c7.535-7.106,25.248-5.741,26.475,10.075
					c1.227,15.816-0.131,14.086-0.131,14.086s6.351-5.168,9.581-0.001c3.23,5.167-0.893,11.245-0.893,11.245s7.224-1.33,6.098,3.599
					c-1.074,4.7-60.667,2.692-60.667,2.692s-2.7-4.024-1.624-11.883C100.188,119.64,110.407,117.122,115.367,120.93z"/>
				<path style="fill:#FFFFFF;" d="M265.904,104.438c0,0-3.662-7.887,0.282-12.112c3.943-4.225,10.985,7.042,10.985,7.042
					s-0.563-12.957,5.07-12.957s3.38,17.182,3.38,17.182s2.817-7.887,5.915-4.788c3.098,3.098-0.845,9.577-0.845,9.577l-30.139,1.69
					C260.552,110.072,254.637,102.748,265.904,104.438z"/>
				<path style="fill:#FFFFFF;" d="M92.089,141.196c0,0-4.022-7.887,0.309-12.112c4.331-4.225,12.066,7.042,12.066,7.042
					s-0.619-12.957,5.569-12.957c6.188,0,3.713,17.182,3.713,17.182s3.094-7.887,6.497-4.788c3.403,3.098-0.928,9.577-0.928,9.577
					l-33.105,1.69C86.211,146.829,79.713,139.506,92.089,141.196z"/>
				<path style="fill:#FFFFFF;" d="M293.964,204.497c0,0-3.644-8.482,4.616-9.729c8.261-1.247,7.532,8.732,7.532,8.732
					s-0.486-13.222,5.102-13.222c5.588,0,5.831,13.721,5.831,13.721s2.673-7.983,6.803-5.488c4.131,2.495,1.944,8.233,1.944,8.233
					s4.616-2.495,5.102,0.499s-44.463,2.495-44.463,2.495S284.246,201.503,293.964,204.497z"/>
				<path style="fill:#FFFFFF;" d="M234.814,168.797c0,0-3.645-10.205,4.616-11.706c8.261-1.501,7.532,10.505,7.532,10.505
					s-0.848-11.394,4.718-11.894c8.629-0.775,6.216,12.494,6.216,12.494s2.673-9.605,6.803-6.603
					c4.13,3.002,1.944,9.905,1.944,9.905s5.536-2.497,6.022,1.104c0.486,3.602-45.382,2.497-45.382,2.497
					S225.095,165.195,234.814,168.797z"/>
			</g>
			<g>
				<path style="fill:#025785;" d="M311.253,122.092c-5.001-0.132-8.897,3.072-11.242,7.217c-2.173-3.495-5.622-6.279-9.771-6.962
					c-1.533-0.252-2.193,2.094-0.647,2.348c4.378,0.72,7.654,3.97,9.412,7.891c0.48,1.069,1.885,0.561,2.226-0.291
					c1.676-4.195,5.281-7.892,10.022-7.767C312.821,124.569,312.82,122.134,311.253,122.092z"/>
				<path style="fill:#025785;" d="M328.054,104.204c1.545-0.23,0.888-2.577-0.647-2.348c-2.503,0.372-4.507,2.41-5.988,4.571
					c-1.407-2.603-3.923-4.531-6.885-5.205c-1.526-0.347-2.177,2-0.647,2.348c3.017,0.687,5.404,2.89,6.121,5.91
					c0.24,1.011,1.73,1.198,2.225,0.291C323.455,107.532,325.351,104.606,328.054,104.204z"/>
				<path style="fill:#025785;" d="M334.702,120.825c-2.059-0.005-3.8,1.461-5.146,3.102c-0.762-1.346-1.931-2.474-3.324-3.147
					c-1.405-0.679-2.641,1.42-1.229,2.103c1.597,0.773,2.713,2.173,3.032,3.92c0.2,1.096,1.703,1.101,2.226,0.291
					c0.908-1.407,2.592-3.838,4.441-3.833C336.269,123.264,336.271,120.829,334.702,120.825z"/>
			</g>
		</g>
		<g>
			<path style="fill:#08E1ED;" d="M108.028,293.157c0,0-10.14-3.803-2.535-15.633c7.605-11.83,37.18-15.21,51.968-13.098
				c14.788,2.113,47.743,16.478,50.701,6.76c2.958-9.718,43.201,4.83,61.738,11.921c18.538,7.091,37.55,13.851,79.378,8.359
				c41.828-5.492,92.106,4.648,95.486,14.365c3.38,9.718-8.028,16.759-28.097,21.9c-20.069,5.141-123.171,8.995-143.018,11.056
				C253.804,340.848,111.831,312.17,108.028,293.157z"/>
			<path style="fill:#08E1ED;" d="M435.469,290.622c0,0-12.253,4.225-11.408-3.38c0.845-7.605,14.365-7.183,17.323-5.07
				C444.342,284.284,443.074,289.354,435.469,290.622z"/>
			<path style="fill:#08E1ED;" d="M450.68,299.495c0,0-7.183,1.69-5.07-2.958c2.112-4.648,10.563-2.957,11.408-0.845
				C457.862,297.805,454.06,299.495,450.68,299.495z"/>
			<path style="fill:#08E1ED;" d="M89.86,296.115c0,0-13.098,0-11.408-5.07c1.69-5.07,13.098-7.605,15.633-5.07
				C96.621,288.509,97.63,293.157,89.86,296.115z"/>
		</g>
		<g>
			<g>
				<path style="fill:#FFB140;" d="M79.087,377.024c0,0-8.45-4.225-26.618-10.14c-18.168-5.915-29.575-28.73-16.478-46.898
					c13.098-18.168,53.236-31.688,89.571-36.335c36.335-4.648,72.671,20.28,110.696,19.013c38.026-1.267,59.573-3.802,53.236,10.14
					c-6.337,13.943,34.645,5.915,59.573,2.958c24.928-2.958,76.896-4.648,98.866,8.873c21.97,13.52,27.463,41.405,15.633,58.306
					c-11.83,16.9-12.253,21.97-35.49,25.773c-23.238,3.803-29.575,2.535-33.378,23.238c-3.802,20.703,8.45,35.068-58.306,38.87
					c-66.756,3.803-96.754-5.915-89.571-20.703c7.182-14.788,14.788-31.688-18.59-22.393
					c-33.378,9.295-119.991,16.478-142.807,4.648c-22.815-11.83-26.618-23.238-12.675-33.378
					C86.692,388.854,93.874,386.742,79.087,377.024z"/>
				<g>
					<path style="fill:#FFB140;" d="M195.871,440.834c-4.041,0.047-11.874-1.425-13.883,3.386c-0.82,1.963-0.095,4.09,1.57,5.354
						c1.98,1.503,4.338,1.243,6.635,0.726c0.131-0.029,0.242-0.076,0.357-0.119c3.91,0.711,8.779,0.414,11.14-2.667
						c1.052-1.373,1.356-3.406,0.36-4.926C200.671,440.481,198.068,440.809,195.871,440.834z"/>
					<path style="fill:#FFB140;" d="M218.983,431.844c-1.132-0.623-2.617-1.193-4.231-1.597c-4.491-1.429-11.913-1.001-12.776,4.301
						c-0.624,3.837,2.4,5.227,5.808,5.337c2.087,0.738,4.399,0.974,6.547,0.38c1.985-0.285,3.965-0.938,4.82-2.936
						c0.101-0.237,0.173-0.473,0.231-0.708c0.185-0.351,0.254-0.788,0.217-1.228C220.427,434.331,220.501,432.679,218.983,431.844z"
						/>
					<path style="fill:#FFB140;" d="M172.132,444.817c-0.244-0.885-0.885-1.382-1.701-1.701c-2.338-0.915-6.398-0.358-6.381,2.856
						c0.017,3.103,3.752,4.228,6.229,3.411c1.289-0.425,1.959-1.642,1.699-2.873C172.218,445.979,172.278,445.35,172.132,444.817z"
						/>
					<path style="fill:#FFB140;" d="M208.451,451.971c-1.269,0.085-2.319,0.706-2.917,1.788c-0.249,0.187-0.459,0.419-0.603,0.692
						c-0.645,1.221-0.263,2.581,0.874,3.332c0.226,0.15,0.453,0.299,0.679,0.449c1.014,0.67,2.439,0.282,3.141-0.627
						c0.352-0.456,0.499-0.958,0.493-1.458c0.484-0.429,0.8-1.029,0.768-1.74C210.831,453.159,209.813,451.88,208.451,451.971z
						 M209.436,454.407c0.081,0.097,0.148,0.191,0.207,0.285C209.577,454.595,209.512,454.499,209.436,454.407z M208.451,456.841
						c0.156-0.01,0.312-0.035,0.464-0.071C208.767,456.814,208.613,456.841,208.451,456.841z"/>
					<g>
						<path style="fill:#FFB140;" d="M431.261,417.725c-2.686-1.097-6.414-1.522-9.67-0.862c-0.023,0.002-0.05,0.001-0.073,0.004
							c-1.74,0.181-3.641,1.119-4.958,2.461c-0.087,0.087-0.164,0.179-0.245,0.27c-0.079,0.089-0.161,0.175-0.235,0.267
							c-0.066,0.082-0.122,0.168-0.182,0.253c-1.131,1.561-1.467,3.498-0.108,5.416c2.378,3.357,9.097,4.048,13.315,2.951
							c2.186-0.34,4.006-1.259,4.478-3.263C435.653,423.042,434.34,418.982,431.261,417.725z"/>
						<path style="fill:#FFB140;" d="M436.025,411.896c-0.108-0.664-0.461-1.272-1.121-1.621c-1.08-0.571-2.72-0.353-3.318,0.852
							c-0.397,0.07-0.783,0.167-1.132,0.297c-1.756,0.657-2.353,2.625-1.075,4.07c0.885,1.001,2.176,1.53,3.491,1.615
							c1.391,0.09,2.555-0.439,3.627-1.273c0.81-0.63,0.91-2.128,0.381-2.951C436.632,412.503,436.342,412.176,436.025,411.896z
							 M432.086,410.918c-0.127,0.052-0.251,0.116-0.372,0.184c-0.01,0.002-0.019,0.004-0.029,0.006
							C431.803,411.012,431.935,410.946,432.086,410.918z"/>
						<path style="fill:#FFB140;" d="M441.666,417.473c-3.134,0-3.139,4.87,0,4.87C444.8,422.344,444.805,417.473,441.666,417.473z"
							/>
						<path style="fill:#FFB140;" d="M449.354,409.206c-1.684-0.587-3.511-0.606-5.231-0.163c-1.829,0.472-2.296,2.761-1.075,4.07
							c1.647,1.766,4.483,2.132,6.525,0.842c0.209-0.132,0.386-0.289,0.54-0.46c0.106-0.072,0.216-0.138,0.315-0.22
							C451.956,412.026,450.916,409.75,449.354,409.206z"/>
					</g>
				</g>
			</g>
			<g>
				<path style="fill:#EEEEEE;" d="M236.817,380.165c-4.231-0.919-11.264-0.005-13.865,4.016c-3.203,4.951,5.491,7.775,8.867,7.668
					c0.395-0.012,0.739-0.102,1.034-0.247c0.623,0.118,1.311,0.144,2.121,0.02c2.056-0.314,4.48-1.034,5.989-2.544
					C244.62,385.419,240.819,381.035,236.817,380.165z"/>
				<path style="fill:#EEEEEE;" d="M248.856,394.741c-0.543-0.843-1.57-1.338-2.544-1.168c-0.016,0-0.029-0.006-0.045-0.006
					c-0.45,0.001-0.86,0.123-1.236,0.31c-1.094,0.239-2.035,1.196-1.982,2.377c0.028,0.63,0.235,1.283,0.713,1.722
					c0.508,0.466,1.043,0.629,1.722,0.713c0.278,0.035,0.567,0.015,0.857-0.026c0.109-0.003,0.218-0.007,0.327-0.01
					c1.225-0.037,2.322-1.074,2.46-2.241C249.25,395.851,249.189,395.257,248.856,394.741z"/>
				<path style="fill:#EEEEEE;" d="M197.535,425.667c0.896-1.454,1.118-3.186,0.598-4.518c0.572-1.342,0.397-2.779-1.313-3.983
					c-3.845-2.708-17.698-3.334-17.446,4.012c0.008,0.229,0.035,0.448,0.078,0.658c-0.463,0.389-0.756,0.986-0.695,1.805
					c0.173,2.359,0.966,2.92,2.962,4.04c1.884,1.057,3.811,2.206,5.95,2.658C191.682,431.186,195.442,429.064,197.535,425.667z"/>
				<path style="fill:#EEEEEE;" d="M369.515,425.061c-0.5-0.315-1.042-0.583-1.643-0.78c-1.09-0.356-2.268-0.403-3.382-0.179
					c-0.124-0.013-0.248-0.031-0.371-0.042c-0.796-0.074-1.443,0.349-1.874,0.947c-1.066,0.691-1.909,1.708-2.299,3.025
					c-1.08,3.648,1.947,6.476,5.005,7.753c0.483,0.202,1.06,0.431,1.691,0.656c3.359,2.061,7.711,2.982,9.975,1.081
					c3.024-2.541,1.04-6.978-1.264-9.208C373.698,426.713,371.671,425.712,369.515,425.061z M368.216,431.114
					c0.143,0.015,0.288,0.044,0.432,0.074c0.066,0.137,0.128,0.275,0.187,0.416c-0.365-0.069-0.719-0.242-1.031-0.494
					C367.941,431.111,368.078,431.101,368.216,431.114z"/>
				<path style="fill:#EEEEEE;" d="M336.296,390.959c-1.696,0.31-3.833,1.039-5.863,2.097c-2.958-0.793-5.007,0.756-5.86,3.016
					c-0.477,0.265-0.885,0.688-1.12,1.318c-1.263,3.389-2.313,7.285-0.208,10.586c2.087,3.272,5.621,3.53,9.202,3.39
					c4.385-0.171,11.631-0.158,15.362-2.678c2.691-1.818,5.326-6.749,6.068-9.82C356.057,389.845,341.674,389.975,336.296,390.959z"
					/>
				<path style="fill:#EEEEEE;" d="M417.583,378.306c1.728,0.402,3.559,0.187,5.237-0.77c0.539-0.307,0.87-0.809,1.026-1.366
					c0.833-1.637-0.453-4.192-2.753-3.546c-1.491,0.419-2.913,0.415-4.403-0.008c-1.853-0.525-3.621,1.569-3.001,3.2
					c-0.006,0.073-0.022,0.141-0.022,0.216c0,1.206,1.119,2.579,2.435,2.435C416.595,378.414,417.089,378.36,417.583,378.306z"/>
				<path style="fill:#EEEEEE;" d="M440.64,385.083c0.849-1.129,1.041-2.62,0.554-3.919c-0.092-0.499-0.311-0.967-0.662-1.247
					c-0.098-0.078-0.2-0.145-0.3-0.216c-0.867-0.825-2.075-1.234-3.277-1.292c-1.388-0.067-3.082,0.368-4.108,1.343
					c-1.22,1.159-1.505,2.997-0.615,4.452c0.77,1.26,2.127,2.027,3.561,2.076c0.161,0.076,0.324,0.147,0.491,0.201
					C437.912,387.002,439.623,386.436,440.64,385.083z"/>
				<path style="fill:#EEEEEE;" d="M396.846,364.786c-1.822-0.003-3.307,1.581-3.296,3.375c0.008,1.274,1.115,2.495,2.435,2.435
					c0.275-0.012,0.538-0.075,0.788-0.165c0.289,0.124,0.601,0.188,0.923,0.174c1.337-0.06,2.413-1.07,2.435-2.435
					C400.161,366.375,398.658,364.789,396.846,364.786z"/>
				<path style="fill:#EEEEEE;" d="M191.081,316.609c-2.161-1.789-4.918-2.138-7.267-1.193c-0.802,0.201-1.523,0.624-2.057,1.268
					c-0.423,0.372-0.817,0.795-1.165,1.28c-0.638,0.889-0.31,2.213,0.381,2.951c1.953,2.086,4.887,2.092,7.116,0.593
					c0.861-0.217,1.703-0.56,2.5-1.074C191.794,319.657,192.351,317.66,191.081,316.609z"/>
				<path style="fill:#EEEEEE;" d="M64.283,325.032c-2.189-0.62-5.361-1.064-7.911-0.368c-1.545,0.31-3.005,0.818-4.015,1.27
					c-1.49,0.666-1.469,2.794-0.493,3.825c0.148,0.156,0.307,0.291,0.462,0.433c0.168,1.152,0.77,2.229,1.785,2.874
					c1.958,1.244,4.228,0.448,6.001-0.711c0.079-0.051,0.138-0.111,0.208-0.167c2.108-0.499,4.069-1.716,5.419-3.579
					C66.684,327.305,65.673,325.426,64.283,325.032z"/>
				<path style="fill:#EEEEEE;" d="M53.009,339.747c-0.995-0.492-2.083-0.595-3.069-0.333c-1.24-0.274-2.691,0.376-2.993,1.701
					c-0.151,0.662-0.025,1.385,0.321,1.964c0.233,0.786,0.861,1.46,1.69,1.746c1.365,0.471,2.825,0.244,4.087-0.399
					c0.956-0.487,1.298-1.549,1.129-2.52C54.201,341.039,53.837,340.157,53.009,339.747z"/>
				<path style="fill:#EEEEEE;" d="M426.794,360.906c0.347,0.231,0.77,0.454,1.233,0.658c0.531,0.493,1.233,0.772,1.931,0.641
					c2.229,0.515,4.667,0.307,5.496-1.776c0.428-0.394,0.814-0.844,1.142-1.344c1.004-1.528-0.31-3.728-2.103-3.664
					c-2.403,0.085-4.791,0.427-7.118,1.034C425.251,357.01,425.107,359.785,426.794,360.906z"/>
				<path style="fill:#EEEEEE;" d="M66.779,333.715c-0.979,0.132-1.758,0.724-2.213,1.549c-0.551,0.437-0.918,1.089-0.915,1.862
					c0.001,0.172,0.01,0.347,0.019,0.521c-0.076,0.233-0.125,0.479-0.113,0.75c0.04,0.898,0.605,1.852,1.44,2.249
					c0.598,0.513,1.347,0.833,2.158,0.858c2.149,0.065,3.416-2.017,3.379-3.949C70.494,335.519,69.01,333.415,66.779,333.715z
					 M68.981,336.656C68.941,336.512,68.958,336.557,68.981,336.656L68.981,336.656z"/>
			</g>
			<g>
				<g>
					<path style="fill:#FFFFFF;" d="M142.353,382.643c-2.226,4.714-4.452,9.428-6.677,14.142c-0.381,0.806-0.231,1.51,0.468,2.077
						c5.648,4.581,11.297,9.163,16.945,13.744c1.505,1.221,3.097-1.339,1.609-2.545c-5.299-4.298-10.598-8.596-15.897-12.894
						c2.033-4.305,4.065-8.609,6.098-12.914C145.717,382.519,143.179,380.894,142.353,382.643z"/>
					<polygon style="fill:#05867A;" points="191.671,400.032 157.221,395.812 156.26,423.438 190.91,421.895 					"/>
					
						<rect x="138.941" y="405.691" transform="matrix(0.0348 -0.9994 0.9994 0.0348 -258.9875 550.8004)" style="fill:#D1DCF2;" width="33.432" height="7.574"/>
				</g>
				<g>
					<path style="fill:#FFFFFF;" d="M422.896,395.934c-2.248-4.703-4.496-9.406-6.744-14.11c-0.384-0.804-1.025-1.133-1.906-0.949
						c-7.12,1.484-14.239,2.969-21.359,4.453c-1.897,0.395-0.919,3.246,0.957,2.855c6.679-1.393,13.359-2.785,20.038-4.178
						c2.053,4.295,4.106,8.59,6.159,12.885C420.867,398.621,423.73,397.679,422.896,395.934z"/>
					<polygon style="fill:#FF6766;" points="378.261,423.181 403.295,399.141 382.486,380.944 361.793,408.78 					"/>
					
						<rect x="376.973" y="385.508" transform="matrix(0.7528 0.6583 -0.6583 0.7528 353.606 -162.9142)" style="fill:#EEEEEE;" width="33.432" height="7.574"/>
				</g>
				<path style="opacity:0.7;fill:#D1DCF2;" d="M103.099,373.433c-12.675-2.817-35.49,1.127-44.786,3.38s-19.717,0-18.872,5.633
					c0.845,5.633,18.308,5.633,18.308,5.633s3.098-0.563,3.38,1.127c0.282,1.69,1.69,15.492,1.972,19.435
					c0.282,3.943-1.127,7.887-4.507,8.45c-3.38,0.563-17.745,1.69-17.182,6.197c0.563,4.507,12.393,3.943,17.182,2.535
					c4.788-1.408,33.237-4.788,38.307-5.633c5.07-0.845,17.464-5.352,18.872-11.83c1.408-6.478,4.507-10.703,4.507-19.717
					C120.281,379.63,115.774,376.25,103.099,373.433z M59.018,384.136c-0.563,1.127-10.703,0.282-12.816,0
					c-2.112-0.282-1.69-2.394-1.69-2.394c0.845-2.676,13.52-1.549,14.365-1.267C59.722,380.756,59.581,383.01,59.018,384.136z
					 M59.158,423.288c-2.394,1.127-9.858,1.69-11.548,1.549c-1.69-0.141-0.845-2.253-0.845-2.253
					c2.676-3.239,15.492-3.38,16.055-1.831C63.383,422.303,61.553,422.162,59.158,423.288z"/>
				<g>
					<g style="opacity:0.8;">
						
							<ellipse transform="matrix(0.8944 -0.4473 0.4473 0.8944 -161.1795 158.9828)" style="fill:#D1DCF2;" cx="256.096" cy="420.829" rx="10.879" ry="14.999"/>
						
							<ellipse transform="matrix(0.8944 -0.4473 0.4473 0.8944 -156.7432 164.302)" style="fill:#D1DCF2;" cx="269.574" cy="414.089" rx="10.879" ry="14.999"/>
						
							<ellipse transform="matrix(0.8944 -0.4473 0.4473 0.8944 -168.2312 150.5371)" style="fill:#D1DCF2;" cx="234.682" cy="431.538" rx="10.879" ry="14.999"/>
						<path style="fill:#D1DCF2;" d="M251.72,439.788c-5.374,2.688-12.734-1.14-16.439-8.549s-2.352-15.594,3.022-18.281
							c5.374-2.688,12.734,1.14,16.439,8.549C258.447,428.915,257.094,437.1,251.72,439.788z"/>
					</g>
					<path style="fill:#025785;" d="M278.001,412.559l-2.147-4.294c-0.529-1.058-0.1-2.344,0.958-2.873l3.16-1.58
						c1.058-0.529,2.344-0.1,2.873,0.958l2.147,4.294c0.529,1.058,0.1,2.344-0.957,2.873l-3.16,1.58
						C279.816,414.046,278.53,413.617,278.001,412.559z"/>
				</g>
				<g>
					<g>
						<g>
							<path style="fill:#93706C;" d="M320.831,415.604c1.356,0.521,2.04,2.058,1.518,3.414l-1.777,4.623
								c-0.521,1.356-2.058,2.04-3.414,1.518l-0.374-0.144c-1.356-0.521-2.04-2.058-1.518-3.414l1.777-4.622
								c0.521-1.356,2.058-2.04,3.414-1.518L320.831,415.604z"/>
						</g>
						<path style="fill:#93706C;" d="M318.94,423.576c8.571,3.294,13.752,7.308,14.674,9.771c0.922,2.462,3.482,3.446,3.482,3.446
							s16.059,5.686,21.501,7.161c-0.062-0.506-0.393-1.146-1.231-1.948c-2.776-2.656-0.629-3.599,1.512-3.361
							c2.141,0.238,3.074-3.16,0.112-4.767c-2.962-1.607,0.503-2.279,2.147-2.569c1.644-0.29,0.47-1.476-0.748-2.529
							c-0.917-0.793,2.413,0.1,3.542-0.415c-5.533-2.714-20.211-8.808-20.211-8.808s-2.561-0.984-4.894,0.227
							c-2.333,1.211-9.372,1.12-17.943-2.174"/>
					</g>
				</g>
			</g>
			<g>
				<path style="fill:#FFE89F;" d="M275.481,449.302c-3.134,0-3.139,4.871,0,4.871C278.615,454.172,278.62,449.302,275.481,449.302z
					"/>
				<path style="fill:#FFE89F;" d="M272.208,443.541c-0.41-1.268-1.675-2.047-2.996-1.701c-0.349,0.091-0.698,0.183-1.047,0.274
					c-1.221,0.358-2.111,1.73-1.701,2.996c0.349,1.078,1.317,1.795,2.41,1.775c1.049,0.36,2.377-0.077,2.905-1.075
					c0.066-0.126,0.116-0.254,0.16-0.384C272.282,444.865,272.415,444.179,272.208,443.541z"/>
				<path style="fill:#FFE89F;" d="M298.86,449.302c-3.134,0-3.139,4.871,0,4.871C301.993,454.172,301.999,449.302,298.86,449.302z"
					/>
				<path style="fill:#FFE89F;" d="M288.999,445.766c0.748-0.815,0.725-1.941,0-2.755c-0.088-0.099-0.176-0.198-0.264-0.297
					c-0.68-0.763-2.072-0.745-2.755,0c-0.748,0.815-0.725,1.941,0,2.755c0.088,0.099,0.176,0.198,0.264,0.297
					C286.924,446.529,288.315,446.511,288.999,445.766z"/>
				<path style="fill:#FFE89F;" d="M288.322,460.456c-0.191,0.047-0.382,0.11-0.568,0.208c-1.059,0.557-1.447,1.983-0.848,3.002
					c0.658,1.119,2.177,1.371,3.188,0.589c0.866-0.669,1.284-1.995,0.606-2.958C290.173,460.548,289.195,460.1,288.322,460.456z"/>
				<path style="fill:#FFE89F;" d="M260.865,455.993c-0.094,0.094-0.188,0.188-0.282,0.282c-0.722,0.722-0.775,2.043,0,2.755
					c0.778,0.714,1.985,0.77,2.755,0c0.094-0.094,0.188-0.188,0.282-0.282c0.722-0.722,0.775-2.043,0-2.755
					C262.842,455.279,261.635,455.223,260.865,455.993z"/>
				<path style="fill:#FFE89F;" d="M321.081,436.276c-0.283-0.26-0.566-0.519-0.849-0.779c-0.72-0.66-1.773-0.759-2.558-0.152
					c-0.808,0.624-0.922,1.621-0.502,2.513c0.35,0.743,0.91,1.265,1.554,1.75c0.817,0.616,2.213,0.157,2.665-0.699
					c0.213-0.403,0.281-0.799,0.237-1.172C321.667,437.205,321.506,436.666,321.081,436.276z"/>
				<path style="fill:#FFE89F;" d="M335.477,448.38c-2.507,0-2.511,3.896,0,3.896C337.984,452.277,337.988,448.38,335.477,448.38z"
					/>
				<path style="fill:#FFE89F;" d="M361.384,374.639c-0.18-0.267-0.359-0.533-0.539-0.8c-0.421-0.625-1.174-1.031-1.912-0.96
					c-0.772-0.121-1.67,0.285-2.022,0.952c-0.535,1.012-0.183,2.023,0.699,2.665c0.369,0.269,0.739,0.538,1.108,0.808
					c0.665,0.485,1.821,0.283,2.361-0.305C361.64,376.389,361.878,375.372,361.384,374.639z"/>
				<path style="fill:#FFE89F;" d="M344.201,358.084c-0.094-0.188-0.188-0.376-0.282-0.563c-0.457-0.914-1.821-1.243-2.666-0.699
					c-0.934,0.602-1.188,1.688-0.699,2.666c0.094,0.188,0.188,0.375,0.282,0.563c0.457,0.914,1.821,1.243,2.665,0.699
					C344.436,360.148,344.689,359.061,344.201,358.084z"/>
				<path style="fill:#FFE89F;" d="M346.18,367.541c-2.507,0-2.511,3.897,0,3.897C348.687,371.438,348.691,367.541,346.18,367.541z"
					/>
				<path style="fill:#FFE89F;" d="M129.335,409.733c-0.013,0.005-0.05,0.016-0.094,0.028c-0.167-0.007-0.331,0.013-0.493,0.049
					c-0.341-0.008-0.663,0.04-0.999,0.237c-0.404,0.237-0.79,0.7-0.895,1.164c-0.12,0.529-0.001,1.193,0.325,1.693
					c0.057,0.116,0.125,0.23,0.21,0.34c0.62,0.803,1.626,0.931,2.513,0.502c0.311-0.151,0.623-0.301,0.934-0.452
					c0.872-0.421,1.147-1.604,0.797-2.433C131.281,410.025,130.254,409.405,129.335,409.733z"/>
				<path style="fill:#FFE89F;" d="M128.449,404.393c0.188,0,0.376,0,0.563,0c1.019,0,1.995-0.896,1.948-1.948
					c-0.047-1.056-0.856-1.948-1.948-1.948c-0.188,0-0.376,0-0.563,0c-1.019,0-1.995,0.896-1.948,1.948
					C126.548,403.5,127.357,404.393,128.449,404.393z"/>
				<path style="fill:#FFE89F;" d="M144.223,411.2c-2.507,0-2.511,3.896,0,3.896C146.73,415.096,146.734,411.2,144.223,411.2z"/>
				<path style="fill:#FFE89F;" d="M189.914,379.756c-0.348,0.135-0.67,0.35-0.922,0.621c-1.055,0.699-1.254,2.233-0.49,3.222
					c0.53,0.686,1.361,0.964,2.205,0.73c0.355-0.098,0.705-0.227,1.056-0.341c1.096-0.353,1.517-1.312,1.361-2.396
					C192.925,380.217,191.189,379.263,189.914,379.756z"/>
				<path style="fill:#FFE89F;" d="M188.445,373.738c-2.507,0-2.511,3.896,0,3.896C190.952,377.634,190.956,373.738,188.445,373.738
					z"/>
				<path style="fill:#FFE89F;" d="M173.547,381.069c-0.188,0.188-0.376,0.376-0.563,0.563c-0.722,0.722-0.775,2.043,0,2.755
					c0.778,0.714,1.985,0.77,2.755,0c0.188-0.188,0.376-0.376,0.563-0.563c0.722-0.722,0.775-2.043,0-2.755
					C175.525,380.355,174.317,380.299,173.547,381.069z"/>
				<path style="fill:#FFE89F;" d="M206.635,386.775c-0.005-0.022-0.005-0.044-0.011-0.066c-0.375-1.368-1.648-1.954-2.969-1.724
					c-0.581,0.101-1.046,0.616-1.262,1.128c-0.255,0.603-0.178,1.154,0.098,1.734c0.365,0.767,0.898,1.471,1.519,2.05
					c0.715,0.665,1.777,0.756,2.558,0.152c0.765-0.591,0.988-1.662,0.502-2.513C206.924,387.282,206.78,387.029,206.635,386.775z"/>
				<path style="fill:#FFE89F;" d="M193.921,388.73c-0.326,0.326-0.508,0.775-0.546,1.234c-0.093,0.441-0.042,0.91,0.218,1.329
					c1.049,1.692,3.791,1.306,4.07-0.772C197.939,388.466,195.352,387.301,193.921,388.73z"/>
				<path style="fill:#FFE89F;" d="M199.43,374.301c-2.507,0-2.511,3.896,0,3.896C201.937,378.198,201.941,374.301,199.43,374.301z"
					/>
				<path style="fill:#FFE89F;" d="M216.101,376.755c-0.658-0.585-1.446-0.81-2.308-0.596c-0.905,0.225-1.557,1.036-1.678,1.935
					c-0.047,0.347-0.006,0.681,0.101,0.987c0.044,0.156,0.104,0.309,0.197,0.454c0.078,0.121,0.172,0.231,0.273,0.333
					c0.723,0.812,1.977,1.158,2.985,0.477c0.622-0.42,1.078-1.239,0.963-2.005C216.713,377.766,216.565,377.168,216.101,376.755z"/>
				<path style="fill:#FFE89F;" d="M74.815,357.961c0,0.087,0,0.174,0,0.262c0,2.507,3.896,2.511,3.896,0c0-0.087,0-0.174,0-0.262
					C78.711,355.454,74.815,355.45,74.815,357.961z"/>
				<path style="fill:#FFE89F;" d="M77.608,350.359c-2.507,0-2.511,3.896,0,3.896C80.115,354.256,80.119,350.359,77.608,350.359z"/>
				<path style="fill:#FFE89F;" d="M60.288,352.29c-0.49,0.202-0.885,0.419-1.164,0.895c-0.244,0.418-0.348,1.033-0.196,1.501
					c0.153,0.473,0.528,0.932,0.993,1.208c0.255,0.4,0.638,0.715,1.102,0.821c1.054,0.24,2.077-0.317,2.396-1.361
					C63.951,353.623,62.103,351.54,60.288,352.29z"/>
				<path style="fill:#FFE89F;" d="M86.591,356.423c-0.722-0.722-2.043-0.775-2.755,0c-0.714,0.778-0.77,1.985,0,2.755
					c0.141,0.141,0.282,0.282,0.423,0.423c0.722,0.722,2.043,0.775,2.755,0c0.714-0.778,0.77-1.985,0-2.755
					C86.872,356.704,86.731,356.563,86.591,356.423z"/>
				<path style="fill:#FFE89F;" d="M87.6,305.418c-0.012-0.007-0.021-0.017-0.034-0.025c-1.86-1.087-3.984,0.382-4.113,2.388
					c-0.114,1.773,1.327,3.437,3.159,3.191c0.916-0.123,1.684-0.603,2.245-1.33c0.654-0.846,0.779-1.764,0.628-2.8
					C89.365,306.006,88.436,305.43,87.6,305.418z M85.7,307.517c0.003,0.118,0.011,0.238,0.029,0.361
					C85.682,307.758,85.675,307.637,85.7,307.517z"/>
				<path style="fill:#FFE89F;" d="M75.073,308.531c-2.507,0-2.511,3.896,0,3.896C77.58,312.428,77.584,308.531,75.073,308.531z"/>
				<path style="fill:#FFE89F;" d="M82.091,298.227c0-1.019-0.896-1.995-1.948-1.948c-1.056,0.047-1.948,0.856-1.948,1.948
					c0,0.282,0,0.563,0,0.845c0,1.019,0.896,1.995,1.948,1.948c1.055-0.047,1.948-0.856,1.948-1.948
					C82.091,298.79,82.091,298.509,82.091,298.227z"/>
				<path style="fill:#FFE89F;" d="M121.126,343.177c-1.056,0.047-1.948,0.856-1.948,1.948c0,0.141,0,0.282,0,0.422
					c0,1.019,0.896,1.995,1.948,1.948c1.056-0.047,1.948-0.856,1.948-1.948c0-0.141,0-0.282,0-0.422
					C123.074,344.106,122.178,343.13,121.126,343.177z"/>
				<path style="fill:#FFE89F;" d="M128.625,339.797c-1.055,0.047-1.948,0.856-1.948,1.948c0,0.141,0,0.282,0,0.423
					c0,1.019,0.896,1.995,1.948,1.948c1.056-0.047,1.948-0.856,1.948-1.948c0-0.141,0-0.282,0-0.423
					C130.574,340.726,129.677,339.75,128.625,339.797z"/>
				<path style="fill:#FFE89F;" d="M121.971,335.149c-2.507,0-2.511,3.896,0,3.896C124.478,339.046,124.482,335.149,121.971,335.149
					z"/>
				<path style="fill:#FFE89F;" d="M86.489,367.827c-0.571-0.886-1.725-1.251-2.665-0.699c-0.837,0.491-1.496,1.32-1.699,2.28
					c-0.198,0.936,0.159,1.65,0.895,2.2c0.926,0.691,2.356,0.403,3.131-0.38c0.787-0.796,1.044-1.977,0.525-2.981
					C86.632,368.101,86.575,367.959,86.489,367.827z"/>
				<path style="fill:#FFE89F;" d="M114.398,388.505c-0.139-0.43-0.371-0.753-0.665-0.982c-0.061-0.437-0.243-0.852-0.54-1.125
					c-0.853-0.783-1.897-0.676-2.755,0c-0.963,0.759-0.996,2.258-0.421,3.249c0.583,1.005,1.87,1.689,3.021,1.254
					C113.988,390.543,114.743,389.57,114.398,388.505z"/>
				<path style="fill:#FFE89F;" d="M127.722,385.263c0-0.282,0-0.563,0-0.845c0-1.019-0.896-1.995-1.948-1.948
					c-1.056,0.047-1.948,0.856-1.948,1.948c0,0.282,0,0.563,0,0.845c0,1.019,0.896,1.995,1.948,1.948
					C126.829,387.164,127.722,386.355,127.722,385.263z"/>
				<path style="fill:#FFE89F;" d="M115.633,397.68c-2.507,0-2.511,3.896,0,3.896C118.14,401.576,118.145,397.68,115.633,397.68z"/>
				<path style="fill:#FFE89F;" d="M99.32,429.364c0,0.087,0,0.174,0,0.262c0,2.507,3.896,2.511,3.896,0c0-0.087,0-0.174,0-0.262
					C103.216,426.857,99.32,426.853,99.32,429.364z"/>
				<path style="fill:#FFE89F;" d="M110.986,425.565c-1.055,0.047-1.948,0.856-1.948,1.948c0,0.141,0,0.282,0,0.423
					c0,1.019,0.896,1.995,1.948,1.948c1.056-0.047,1.948-0.856,1.948-1.948c0-0.141,0-0.282,0-0.423
					C112.934,426.494,112.038,425.518,110.986,425.565z"/>
				<path style="fill:#FFE89F;" d="M103.973,420.757c-1.178,0.02-2.086,0.936-2.115,2.108c-0.025,1.02,0.914,1.994,1.948,1.948
					c0.061-0.003,0.118-0.016,0.178-0.024c0.056,0.003,0.109,0.014,0.167,0.012c0.971-0.043,2.053-0.862,1.948-1.948
					C105.989,421.71,105.209,420.736,103.973,420.757z"/>
				<path style="fill:#FFE89F;" d="M336.435,366.875c-0.897,0.002-1.808,0.62-1.99,1.533c-0.199,0.996,0.284,2.151,1.361,2.396
					c0.151,0.035,0.309,0.045,0.468,0.044c0.263,0.044,0.535,0.033,0.798-0.052c1.005-0.325,1.65-1.344,1.361-2.396
					C338.183,367.492,337.379,366.873,336.435,366.875z"/>
				<path style="fill:#FFE89F;" d="M343.161,379.328c-0.351-0.47-0.878-0.799-1.5-0.747c-0.835,0.071-1.498,0.39-1.932,1.128
					c-0.469,0.796-0.325,1.911,0.328,2.564c1.173,1.174,3.24,0.6,3.664-1C343.902,380.589,343.666,379.817,343.161,379.328z"/>
				<path style="fill:#FFE89F;" d="M357.165,362.471c-2.507,0-2.511,3.897,0,3.897C359.672,366.368,359.676,362.471,357.165,362.471
					z"/>
			</g>
		</g>
		<g>
			<g>
				<g>
					<path style="fill:#FE8F86;" d="M169.419,172.046c0,0,16.002,29.225,25.975,41.591c9.973,12.366,32.926,34.185,36.97,37.297
						c4.044,3.113,4.893,3.227,5.429,2.364c0.536-0.862-5.149-6.31-5.149-6.31s5.826,5.152,6.925,4.272
						c1.099-0.88-5.294-6.728-5.294-6.728s6.526,5.852,7.044,4.427c0.519-1.426-5.277-6.456-5.277-6.456s6.794,5.421,7.326,4.418
						c0.532-1.003-7.283-7.519-7.283-7.519s4.897,3.368,4.998,2.096c0.101-1.271-8.061-5.381-14.2-12.373
						c-6.139-6.992-25.162-33.726-33.372-48.261C185.301,166.33,169.419,172.046,169.419,172.046z"/>
					<path style="fill:#D389D4;" d="M167.524,177.848c0.147,0.281,11.01,17.3,11.01,17.3s2.354,4.258,3.195,4.126
						c0.841-0.132,12.131-6.03,15.73-9.208c3.598-3.179,4.155-5,2.01-7.945c-7.011-9.629-17.067-27.389-20.512-29.394
						C175.511,150.722,158.414,160.488,167.524,177.848z"/>
				</g>
				<g>
					<path style="fill:#493B4A;" d="M223.513,257.667c0,0,0-8.908,3.239-11.302c3.239-2.394,6.443-13.309,14.365,7.077
						c8.355,21.5,13.802,19.717,22.674,24.083c8.873,4.366,22.252,6.338,25.209,10.14c2.957,3.802,5.915,7.464,3.662,12.675
						c-2.253,5.211-14.647,7.887-16.337,6.056c-1.69-1.831-17.323,2.113-24.646,2.394c-7.323,0.282-28.167-20.421-28.449-24.646
						C222.949,279.918,222.809,259.638,223.513,257.667z"/>
					<g>
						<g>
							<g>
								<path style="fill:#D1DCF2;" d="M230.087,272.75c0.181-0.383,0.313-0.783,0.399-1.189c0.012-0.037,0.031-0.07,0.041-0.108
									c0.279-1.096,0.108-1.986-0.337-3.007c-0.139-0.319-0.378-0.571-0.667-0.766c-0.256-0.245-0.551-0.431-0.869-0.544
									c-0.16-0.148-0.335-0.281-0.529-0.396c-1.505-0.887-3.393-0.334-4.419,0.994c-1.053,1.363-0.875,3.132-0.137,4.595
									c0.128,0.253,0.292,0.482,0.472,0.697c0.333,0.712,0.818,1.329,1.506,1.665C227.306,275.55,229.299,274.42,230.087,272.75z
									 M225.841,270.507c0.016,0.051,0.036,0.101,0.055,0.152c-0.003,0-0.005-0.001-0.008-0.001
									C225.872,270.607,225.85,270.557,225.841,270.507z"/>
								<path style="fill:#D1DCF2;" d="M232.449,271.847c1.211,0.276,2.632-0.35,2.97-1.627c0.185-0.338,0.304-0.721,0.317-1.145
									c0.006-0.189,0.012-0.378,0.018-0.567c0.039-1.212-0.957-2.237-2.112-2.392c-1.142-0.154-2.405,0.557-2.672,1.744
									c-0.074,0.33-0.148,0.66-0.223,0.991C230.47,270.091,231.125,271.545,232.449,271.847z"/>
								<path style="fill:#D1DCF2;" d="M235.357,278.359c-0.014-0.022-0.033-0.04-0.048-0.062c-0.622-1.373-2.062-2.274-3.661-2.046
									c-0.061,0.009-0.12,0.025-0.18,0.037c-0.349-0.023-0.7-0.029-1.049-0.004c-0.976,0.072-1.937,0.233-2.662,0.958
									c-1.055,1.055-0.996,2.643-0.223,3.822c0.531,0.81,1.324,1.489,2.222,1.934c1.089,1.058,2.833,1.377,4.249,0.617
									C235.91,282.591,236.52,280.182,235.357,278.359z"/>
							</g>
							<g>
								<path style="fill:#EEEEEE;" d="M262.988,290.264c-0.001-1.274-1.12-2.494-2.435-2.435c-0.303,0.014-0.594,0.083-0.864,0.19
									c-0.463-0.067-0.939-0.062-1.402,0.039c-1.498,0.326-2.477,1.623-2.702,3.055c-0.77,0.011-1.488,0.294-2.052,0.783
									c-0.125,0.026-0.251,0.056-0.379,0.095c-2.434,0.754-2.893,3.263-2.427,5.459c0.464,2.188,2.374,4.169,4.772,3.665
									c0.68-0.143,1.228-0.464,1.676-0.882c0.153-0.027,0.305-0.05,0.459-0.1c1.323-0.431,2.156-1.708,2.155-3.078
									c0-0.503-0.075-1.073-0.214-1.657c0.261-0.027,0.522-0.08,0.78-0.166c0.942-0.316,1.741-0.949,2.216-1.826
									c0.142-0.262,0.235-0.534,0.299-0.812c0.069-0.222,0.117-0.454,0.117-0.703c0-0.083,0-0.167,0-0.25
									C263.006,291.183,262.988,290.72,262.988,290.264z"/>
								<path style="fill:#EEEEEE;" d="M256.523,272.759c-1.112,1.381-1.572,3.365-1.012,5.078c0.453,1.386,1.494,2.442,2.829,2.844
									c0.77,0.582,1.874,0.763,2.708,0.195c0.367-0.25,0.7-0.552,1-0.887c0.685-0.547,1.178-1.321,1.315-2.24
									c0.005-0.037,0.002-0.075,0.006-0.112c0.602-1.919,0.323-4.092-1.26-5.518C260.415,270.592,257.89,271.061,256.523,272.759z
									"/>
								<path style="fill:#EEEEEE;" d="M252.358,271.966c0.189-0.851,0.098-1.732-0.462-2.577c-0.764-1.154-2.094-1.487-3.332-0.874
									c-0.604,0.299-1.188,0.665-1.719,1.086c-3.302,0.964-6.211,4.433-3.398,7.247c0.476,0.476,0.988,0.743,1.514,0.865
									c0.305,0.516,0.716,0.962,1.243,1.288C250.042,281.372,253.55,275.624,252.358,271.966z"/>
								<path style="fill:#EEEEEE;" d="M269.911,283.194c-0.004-0.029-0.007-0.057-0.011-0.085
									c-0.324-2.371-1.707-4.219-4.484-3.264c-0.908,0.312-1.538,0.966-1.976,1.764c-0.121,0.154-0.237,0.313-0.339,0.483
									c-1.084,1.815-1.467,4.367-0.449,6.294c0.561,1.062,1.519,1.712,2.555,1.89c0.31,0.191,0.637,0.367,0.997,0.508
									c1.225,0.481,2.673-0.528,2.996-1.701c0.116-0.422,0.106-0.816,0.016-1.18C269.845,286.549,270.108,284.765,269.911,283.194
									z"/>
								<path style="fill:#EEEEEE;" d="M252.507,266.19c0.011,0.421,0.123,0.85,0.368,1.255c0.253,0.418,0.638,0.747,1.079,0.957
									c0.017,0.017,0.03,0.037,0.047,0.055c0.688,0.699,1.773,0.878,2.66,0.504c0.93-0.392,1.429-1.235,1.497-2.226
									c0.054-0.797-0.177-1.58-0.614-2.196c-0.429-1.107-1.205-1.837-2.33-2.242c-0.8-0.288-1.792,0.048-2.369,0.626
									c-0.631,0.631-0.829,1.515-0.626,2.369C252.292,265.599,252.39,265.898,252.507,266.19z"/>
								<path style="fill:#EEEEEE;" d="M289.259,293.495c-3.524-3.336-9.589,1.196-8.674,5.522c0.478,2.261,2.73,3.196,4.796,2.589
									c1.821,0.056,3.654-0.78,4.625-2.377C291.127,297.387,290.833,294.985,289.259,293.495z"/>
							</g>
							<g>
								<g>
									<g>
										<path style="fill:#00887A;" d="M248.857,257.56c-0.273,1.427-1.664,2.372-3.091,2.099l-4.864-0.93
											c-1.427-0.273-2.372-1.664-2.099-3.091l0.075-0.393c0.273-1.427,1.664-2.372,3.091-2.099l4.864,0.93
											c1.427,0.273,2.372,1.664,2.099,3.091L248.857,257.56z"/>
									</g>
									<path style="fill:#00887A;" d="M240.676,257.112c-1.724,9.019-4.757,14.829-7.017,16.173
										c-2.26,1.343-2.775,4.038-2.775,4.038s-2.752,16.812-3.239,22.429c0.487-0.15,1.058-0.59,1.699-1.556
										c2.123-3.203,3.431-1.256,3.576,0.893c0.145,2.149,3.655,2.466,4.712-0.734c1.057-3.2,2.332,0.091,2.908,1.658
										c0.577,1.567,1.536,0.201,2.356-1.184c0.618-1.043,0.329,2.392,1.036,3.412c1.691-5.927,5.088-21.452,5.088-21.452
										s0.515-2.695-1.09-4.777c-1.605-2.082-2.762-9.026-1.038-18.044"/>
								</g>
							</g>
							<g>
								<path style="fill:#FFFFFF;" d="M293.612,272.052c-2.495-1.254-4.989-2.507-7.483-3.76c-0.427-0.214-0.805-0.144-1.118,0.223
									c-2.527,2.964-5.054,5.928-7.58,8.891c-0.673,0.79,0.676,1.676,1.342,0.895c2.371-2.781,4.741-5.561,7.112-8.342
									c2.278,1.145,4.556,2.289,6.834,3.434C293.635,273.854,294.538,272.517,293.612,272.052z"/>
								<polygon style="fill:#FF6766;" points="276.188,303.402 286.766,282.041 269.085,275.128 262.195,297.931 								"/>
								
									<rect x="266.787" y="275.314" transform="matrix(0.9313 0.3641 -0.3641 0.9313 120.3076 -82.249)" style="fill:#EEEEEE;" width="22.961" height="5.202"/>
							</g>
							<g>
								<g style="opacity:0.8;">
									<path style="fill:#D1DCF2;" d="M277.46,299.878c2.765,5.335-0.956,12.749-8.311,16.561
										c-7.355,3.812-15.558,2.577-18.323-2.758c-2.765-5.335,0.956-12.749,8.311-16.561
										C266.492,293.309,274.695,294.543,277.46,299.878z"/>
									
										<ellipse transform="matrix(0.8878 -0.4601 0.4601 0.8878 -106.1578 151.2566)" style="fill:#D1DCF2;" cx="257.209" cy="293.4" rx="14.999" ry="10.88"/>
									<path style="fill:#D1DCF2;" d="M288.476,321.135c2.765,5.335-0.956,12.749-8.311,16.561
										c-7.355,3.812-15.558,2.577-18.323-2.758c-2.765-5.335,0.956-12.749,8.311-16.561
										C277.508,314.566,285.711,315.8,288.476,321.135z"/>
									<path style="fill:#D1DCF2;" d="M283.162,310.882c2.765,5.335-0.956,12.749-8.311,16.561
										c-7.355,3.812-15.558,2.577-18.323-2.758c-2.765-5.335,0.956-12.749,8.311-16.561
										C272.194,304.312,280.398,305.547,283.162,310.882z"/>
								</g>
								<path style="fill:#025785;" d="M255.557,284.997l-4.262,2.209c-1.05,0.544-2.343,0.134-2.887-0.916l-1.626-3.137
									c-0.544-1.05-0.134-2.342,0.916-2.887l4.262-2.209c1.05-0.544,2.343-0.134,2.887,0.916l1.626,3.137
									C257.017,283.16,256.607,284.453,255.557,284.997z"/>
							</g>
						</g>
						<g>
							<path style="fill:#93706C;" d="M227.386,252.596c0,0-9.295,26.618,8.661,42.884c17.956,16.266,35.279,4.648,40.56,5.281
								c5.281,0.634,7.816,4.225,11.619,1.268c3.803-2.958,4.225-4.436,4.436-7.816c0.211-3.38,3.38,7.816,0.423,11.408
								c-2.958,3.591-5.492,1.901-4.436,4.648c1.056,2.746,12.816,21.548,9.647,36.758c-3.169,15.21-6.408,18.872-17.816,21.407
								c-11.408,2.535-22.463-1.972-27.956-1.549c-5.493,0.422-17.534,4.014-29.153,5.07c-11.619,1.056-31.477-2.112-37.392-16.9
								c-5.915-14.788,1.056-35.913,8.45-46.264c7.394-10.351,18.168-25.139,19.858-34.645c1.69-9.506,9.295-22.181,9.506-22.815
								C224.006,250.695,227.386,252.596,227.386,252.596z"/>
							<g>
								<g>
									<polygon style="fill:#EEEEEE;" points="244.133,325.878 255.997,318.681 253.518,326.016 									"/>
									<path style="fill:#EEEEEE;" d="M236.27,327.134c0,0,2.648-7.72,5.598-8.049c2.95-0.329,5.519,5.275,5.519,5.275
										l6.696-4.141c0,0-4.912-8.335-10.643-8.683c-5.731-0.348-9.134,1.516-12.026,5.784c-2.892,4.267-2.512,6.916-2.512,6.916
										L236.27,327.134z"/>
								</g>
								<g>
									<path style="fill:#EEEEEE;" d="M250.371,331.791l7.87-4.357c0,0,4.231,4.333,3.744,12.108
										c-0.486,7.775-6.306,9.79-7.732,10.273c-1.426,0.483-5.564-0.113-5.564-0.113l0.721-7.942c0,0,3.331,1.7,4.393-0.912
										C254.865,338.236,252.798,333.338,250.371,331.791z"/>
									<polygon style="fill:#EEEEEE;" points="245.58,346.076 248.632,353.104 249.92,338.745 									"/>
								</g>
								<g>
									<polygon style="fill:#EEEEEE;" points="221.754,329.731 231.032,328.972 234.041,335.942 									"/>
									<path style="fill:#EEEEEE;" d="M224.682,330.553c0,0-2.944,4.879-2.37,10.662c0.574,5.783,3.972,7.701,5.671,8.66
										c1.699,0.959,9.684,1.429,13.029,0.288l0.646-7.8c0,0-7.684,3.561-10.581-1.012c-2.898-4.573,0.495-7.825,0.495-7.825
										L224.682,330.553z"/>
								</g>
							</g>
						</g>
					</g>
				</g>
				<g>
					<g>
						<g>
							<polygon style="fill:#FFCCCA;" points="144.786,343.083 149.574,320.69 161.193,320.831 156.405,345.477 							"/>
							<g>
								<polygon style="fill:#FFFFFF;" points="142.603,348.576 144.082,338.541 158.94,338.576 158.447,348.364 								"/>
								<g>
									<polygon style="fill:#FF6766;" points="160.771,346.025 140.416,346.101 137.973,366.078 175.109,376.335 162.104,357.948 
																			"/>
									<path style="fill:#EEEEEE;" d="M149.589,361.081c2.397-0.851,3.65-3.484,2.799-5.881c-0.851-2.397-3.484-3.65-5.881-2.799
										c-2.397,0.851-3.65,3.484-2.799,5.881C144.559,360.678,147.192,361.931,149.589,361.081z"/>
									<g>
										<line style="fill:none;stroke:#252928;stroke-miterlimit:10;" x1="164.978" y1="362.104" x2="160.443" y2="364.597"/>
										<line style="fill:none;stroke:#252928;stroke-miterlimit:10;" x1="166.865" y1="364.78" x2="161.811" y2="367.329"/>
									</g>
								</g>
							</g>
							<g>
								<path style="fill:#025785;" d="M144.927,333.224c0,0,7.042-45.56,3.028-58.869c-3.942-13.072-13.52-53.869-13.943-56.827
									c-0.423-2.957,6.337-17.323,12.464-16.478c6.126,0.845,14.576,8.45,14.576,8.45l1.056,6.971c0,0,8.834,28.827,10.351,39.715
									c3.591,25.773-0.211,41.405-3.591,50.912c-3.38,9.506-10.422,27.885-10.422,27.885L144.927,333.224z"/>
								<polygon style="fill:#D1DCF2;" points="140.632,338.154 141.054,331.675 163.024,333.365 162.32,340.548 								"/>
							</g>
						</g>
						<g>
							<polygon style="fill:#FFCCCA;" points="91.29,326.387 109.972,304.315 120.249,310.419 100.277,334.041 							"/>
							<g>
								<g>
									<path style="fill:#025785;" d="M111.197,321.817c2.957-1.056,26.618-22.956,30.209-26.97
										c3.591-4.014,13.309-17.956,13.731-29.998c0.423-12.041-5.915-47.109-5.915-47.109s0.634-10.563,0.634-13.943
										c0-3.38-18.379-17.323-18.379-17.323s-15.633,13.731-15.21,29.153c0.423,15.421,14.626,49.803,0.07,75.276
										c-6.76,11.83-16.337,22.393-16.337,22.393L111.197,321.817z"/>
									<path style="fill:none;stroke:#252928;stroke-miterlimit:10;" d="M149.222,217.74c0,0,6.338,35.068,5.915,47.109
										c-0.423,12.041-10.14,25.984-13.731,29.998c-3.591,4.014-17.393,18.027-20.351,19.083"/>
								</g>
								<path style="fill:#D1DCF2;" d="M92.818,316.606c0.317,0.211,18.801,13.731,18.801,13.731l4.859-6.338l-19.435-14.682
									L92.818,316.606z"/>
							</g>
							<g>
								<polygon style="fill:#FFFFFF;" points="90.741,324.105 96.691,318.085 107.817,326.641 102.113,333.471 								"/>
								<g>
									<polygon style="fill:#FF6766;" points="105.925,334.302 89.834,321.834 75.615,336.078 98.573,367.016 99.638,344.52 
																			"/>
									<path style="fill:#EEEEEE;" d="M87.846,339.286c2.413,0.804,5.021-0.5,5.825-2.913c0.804-2.413-0.5-5.021-2.913-5.825
										c-2.413-0.804-5.021,0.5-5.825,2.913C84.129,335.874,85.433,338.482,87.846,339.286z"/>
									<g>
										<line style="fill:none;stroke:#252928;stroke-miterlimit:10;" x1="99.279" y1="349.491" x2="94.238" y2="348.738"/>
										<line style="fill:none;stroke:#252928;stroke-miterlimit:10;" x1="99.187" y1="352.835" x2="93.634" y2="351.734"/>
									</g>
								</g>
							</g>
						</g>
					</g>
					<g>
						<g>
							<g>
								<polygon style="fill:#FF6766;" points="212.587,145.386 206.645,151.51 211.345,152.283 								"/>
								<g>
									<path style="fill:#FDADA6;" d="M214.377,130.54l-5.391-4.635c-3.584-3.082-9.387-2.264-12.896,1.816l-7.185,8.357
										c-0.203,0.236-0.39,0.478-0.569,0.725c-0.27,0.196-0.524,0.423-0.75,0.686l-4.374,5.087l-0.244,0.283l-4.374,5.087
										c-1.587,1.846-1.376,4.655,0.47,6.242l2.139,1.839c1.846,1.587,4.655,1.376,6.242-0.471l3.871-4.502l3.117,2.68
										c3.584,3.082,9.387,2.264,12.896-1.816l7.185-8.357C218.023,139.482,217.961,133.622,214.377,130.54z"/>
									<path style="fill:none;stroke:#1E0041;stroke-width:2;stroke-miterlimit:10;" d="M184.319,127.671
										c2.006-2.362,5.402-2.736,7.584-0.834c0.932,0.812,1.488,1.908,1.668,3.08l-5.951,6.675
										c-1.076-0.061-2.123-0.452-2.982-1.2C182.456,133.49,182.313,130.034,184.319,127.671z"/>
								</g>
								<path style="fill:#252928;" d="M220.578,133.459c1.419-2.985,1.055-6.369,0.746-8.013c-0.023,0.008-0.051,0.018-0.051,0.018
									s-5.487-9.402-14.776-12.233c-9.741-2.969-18.953,1.404-23.673,9.757c-2.633,4.66-2.728,15.111,1.488,17.64
									c0.608,0.365,3.091-2.5,4.191-3.38c2.097-1.678,5.101-4.639,5.825-5.518c0.594,0.171,1.287,0.349,2.054,0.499
									c2.369,0.716,6.52,1.334,9.729-1.57c1.167-0.658,1.774-1.156,2.079-1.479c-0.081,1.248,0.078,2.981,0.86,5.187
									c0.464,1.943,1.293,4.116,2.771,6.057c0.369,0.484,0.696,0.897,0.994,1.258c0.563,0.871,1.168,1.73,1.808,2.555
									C215.798,142.252,218.997,136.787,220.578,133.459z"/>
								<path style="fill:#252928;" d="M204.812,129.872c0,0,5.334,13.633,12.109,17.74c6.775,4.107,12.032-2.005,9.678-8.236
									c-2.354-6.231-3.88-7.674-3.88-7.674s2.87,6.239,5.491,3.699c2.621-2.54-7.992-18.175-18.036-21.367
									C203.626,111.953,202.309,124.929,204.812,129.872z"/>
								<g>
									<path style="fill:#FDADA6;" d="M184.32,127.672c-2.021,2.351-1.739,5.909,0.632,7.948c2.37,2.038,5.931,1.784,7.952-0.567
										c2.021-2.351,1.739-5.909-0.632-7.948C189.902,125.067,186.342,125.321,184.32,127.672z"/>
									<g>
										<g>
											<path style="fill:#252928;" d="M190.937,134.407c0.575-0.599,1.012-1.402,1.17-2.216c0.318-1.633-0.62-2.904-1.879-3.826
												c-0.715-0.524-1.403,0.67-0.695,1.188c1.395,1.021,1.652,2.608,0.431,3.88
												C189.35,134.073,190.322,135.048,190.937,134.407L190.937,134.407z"/>
										</g>
									</g>
								</g>
								<g>
									<path style="fill:#252928;" d="M203.958,140.096c-0.707,0.822-0.614,2.063,0.209,2.77s2.063,0.614,2.77-0.209
										c0.707-0.822,0.614-2.063-0.209-2.77C205.905,139.18,204.665,139.273,203.958,140.096z"/>
									<path style="fill:#F48582;" d="M195.335,141.307c-0.691,1.824,0.227,3.863,2.051,4.555s3.863-0.227,4.555-2.051
										c0.691-1.824-0.227-3.863-2.051-4.555C198.066,138.564,196.027,139.482,195.335,141.307z"/>
									<g>
										<g>
											<path style="fill:#252928;" d="M204.464,154.023c-1.153-0.788-1.684-1.94-1.413-3.333
												c0.153-0.786-1.051-1.122-1.205-0.332c-0.385,1.974,0.343,3.621,1.987,4.745
												C204.499,155.557,205.124,154.474,204.464,154.023L204.464,154.023z"/>
										</g>
									</g>
								</g>
								<path style="fill:#252928;" d="M211.826,113.714c-5.354,5.072-13.807,4.844-18.879-0.511s-4.844-13.807,0.511-18.879
									c5.354-5.072,13.806-4.844,18.879,0.511C217.409,100.189,217.18,108.642,211.826,113.714z"/>
							</g>
							<path style="fill:#EEEEEE;" d="M174.708,154.136l6.055,5.874c1.472,1.428,3.823,1.393,5.252-0.08l0.578-0.596
								c1.428-1.472,1.393-3.823-0.08-5.252l-6.055-5.874c-1.472-1.428-3.823-1.393-5.252,0.08l-0.578,0.596
								C173.201,150.356,173.236,152.708,174.708,154.136z"/>
						</g>
						<g>
							<path style="fill:#D389D4;" d="M180.593,153.097c-11.618-8.634-36.506,5.645-54.174,29.418
								c-1.715,2.307-3.306,4.638-4.776,6.974l41.662,30.751c1.773-2.043,3.508-4.197,5.187-6.457
								C186.16,190.01,192.211,161.731,180.593,153.097z"/>
							<line style="fill:none;stroke:#252928;stroke-miterlimit:10;" x1="171.545" y1="209.431" x2="175.559" y2="203.234"/>
						</g>
					</g>
					<g>
						<path style="fill:#FDADA6;" d="M167.038,178.94c0,0,15.069,29.716,24.646,42.391c9.577,12.675,31.829,35.209,35.772,38.448
							c3.943,3.239,4.788,3.38,5.352,2.535c0.563-0.845-4.947-6.47-4.947-6.47s5.66,5.334,6.786,4.489
							c1.127-0.845-5.079-6.892-5.079-6.892s6.338,6.056,6.901,4.648c0.563-1.408-5.07-6.619-5.07-6.619s6.619,5.633,7.183,4.648
							c0.563-0.986-7.042-7.746-7.042-7.746s4.788,3.521,4.929,2.253c0.141-1.268-7.887-5.633-13.802-12.816
							c-5.915-7.183-24.083-34.505-31.829-49.292C183.093,173.729,167.038,178.94,167.038,178.94z"/>
						<path style="fill:#D389D4;" d="M164.961,184.679c0.138,0.285,10.457,17.64,10.457,17.64s2.218,4.331,3.063,4.225
							c0.845-0.106,12.675-6.654,16.372-9.718c3.697-3.063,2.958-4.436,1.901-6.866c-1.056-2.429-14.682-29.153-18.062-31.265
							C175.312,156.582,156.405,167.039,164.961,184.679z"/>
						<path style="fill:none;stroke:#252928;stroke-miterlimit:10;" d="M186.802,170.682c3.904,9.682,10.833,21.303,10.938,22.764
							c0.141,1.972-5.633,5.352-5.633,5.352s-11.83,7.218-13.203,7.535c-1.373,0.317-9.084-12.411-11.196-17.059"/>
						<path style="fill:none;stroke:#252928;stroke-miterlimit:10;" d="M162.768,176.272c0,0-0.906-7.12,2.335-10.613"/>
					</g>
				</g>
			</g>
			<g>
				<g>
					<g>
						<g>
							<path style="fill:#E2DAD7;" d="M350.687,203.304c-5.07,2.394-12.253,24.505-16.618,30.702
								c-0.663,0.94-1.394,1.857-2.197,2.742l19.799,18.831c0.044-0.057,0.105-0.108,0.144-0.166
								c4.366-6.619,9.295-18.027,10.844-37.462C364.207,198.516,355.757,200.91,350.687,203.304z"/>
							<path style="fill:#FE8F86;" d="M330.904,237.754c-4.531,4.451-11.537,7.771-24.439,7.66
								c-16.337-0.141-18.731-2.676-18.731-2.676c-1.972-0.423-8.309-2.253-8.45-0.563c-0.141,1.69-1.76,9.999,1.338,11.267
								c3.098,1.268,10.774,3.38,18.942,4.366c7.401,0.893,44.854,3.973,51.583-1.685L330.904,237.754z"/>
							<polygon style="fill:#252928;" points="350.757,258.828 327.097,238.601 331.164,234.376 354.56,254.709 							"/>
						</g>
						<g>
							<g>
								<g>
									<g>
										<path style="fill:#493B4A;" d="M285.1,224.007c-0.086,1.451-1.343,2.567-2.793,2.482l-4.944-0.292
											c-1.451-0.086-2.567-1.343-2.482-2.793l0.024-0.4c0.086-1.451,1.343-2.567,2.793-2.482l4.944,0.292
											c1.451,0.086,2.567,1.343,2.482,2.793L285.1,224.007z"/>
									</g>
									<path style="fill:#493B4A;" d="M270.763,264.145c1.69-3.451,3.239-1.69,3.662,0.422c0.423,2.113,3.943,1.972,4.577-1.338
										c0.634-3.31,2.324-0.211,3.098,1.268c0.775,1.479,1.549,0,2.183-1.479c0.478-1.115,0.636,2.329,1.469,3.249
										c0.909-6.095,2.268-21.93,2.268-21.93s0.162-2.739-1.699-4.595c-1.861-1.857-3.112-4.778-2.571-13.944l-3.674-0.839
										l0.008-0.126l-0.362,0.045l-0.393-0.09l-0.007,0.14l-3.311,0.413c-0.542,9.166-2.128,11.92-4.195,13.544
										c-2.067,1.625-2.229,4.363-2.229,4.363s-0.552,17.027-0.308,22.66C269.744,265.696,270.253,265.186,270.763,264.145z"/>
								</g>
							</g>
							<path style="fill:#FE8F86;" d="M288.86,247.667c0,0-7.323-3.098-7.183-5.211c0.141-2.113,7.464,0.423,8.732,1.408
								C291.677,244.851,292.522,250.061,288.86,247.667z"/>
						</g>
					</g>
					<g>
						<g>
							<polygon style="fill:#FE8F86;" points="322.52,346.252 325.759,372.306 312.661,374.137 308.296,346.393 							"/>
							<g>
								<g>
									<path style="fill:#D1DCF2;" d="M291.271,394l37.749-8.255c0,0,0.548-0.405,0.544-2.616
										c-0.004-2.212-0.749-17.271-0.749-17.271l-19.557,2.293l-1.903,6.265c0,0-10.334,12.018-12.532,14.318
										C292.625,391.033,289.562,393.945,291.271,394z"/>
									<path style="fill:#252928;" d="M329.488,382.624c-0.002-0.901-0.126-3.933-0.273-7.21
										c-2.503,0.298-6.629,1.461-8.695,4.744c-1.649,2.62-1.515,5.813-1.186,7.53l9.779-2.1
										C329.112,385.588,329.492,384.836,329.488,382.624z"/>
								</g>
								<g>
									<g>
										<g>
											<path style="fill:#252928;" d="M302.89,377.38c1.709,1.35,3.418,2.701,5.127,4.051c0.956,0.756,2.32-0.59,1.354-1.354
												c-1.709-1.35-3.418-2.701-5.127-4.051C303.287,375.27,301.923,376.616,302.89,377.38L302.89,377.38z"/>
										</g>
									</g>
									<g>
										<g>
											<path style="fill:#252928;" d="M300.09,381.566c1.505,1.223,3.01,2.446,4.515,3.668c0.948,0.77,2.31-0.576,1.354-1.353
												c-1.505-1.223-3.01-2.446-4.515-3.669C300.496,379.442,299.134,380.788,300.09,381.566L300.09,381.566z"/>
										</g>
									</g>
								</g>
							</g>
							<g>
								<path style="fill:#00887A;" d="M309.457,356.11c0,0-8.345-36.758-9.612-49.715c-1.268-12.957,1.267-24.505,16.478-31.547
									c15.21-7.042,43.518-17.886,46.898-16.337c3.38,1.549,2.394,13.52,2.394,17.886c0,4.366-6.76,15.21-6.76,15.21l-8.045,1.866
									c0,0-17.956,6.32-22.182,9.084c-4.757,3.112-6.883,9.225-7.024,17.956c-0.141,8.732,2.535,34.329,2.535,34.329
									L309.457,356.11z"/>
								<path style="fill:none;stroke:#252928;stroke-miterlimit:10;" d="M343.099,296.167c0,0,7.447-2.799,12.939-4.067"/>
								<polygon style="fill:#EEEEEE;" points="305.549,355.476 307.028,362.518 329.421,360.406 328.646,352.73 								"/>
							</g>
						</g>
						<g>
							<polygon style="fill:#FE8F86;" points="404.415,335.196 429.343,328.225 433.198,339.263 406.422,347.554 							"/>
							<g>
								<path style="fill:#00887A;" d="M362.799,269.215c0,0-6.76,19.717-9.858,41.406c-3.098,21.689-2.535,46.757,14.647,48.729
									c17.182,1.972,46.335-13.908,46.335-13.908l-2.641-12.992c0,0-22.85,8.028-26.794,0.423
									c-3.943-7.605,6.197-34.364,9.013-43.377c2.817-9.013,8.169-22.534,6.197-28.449S363.644,267.243,362.799,269.215z"/>
								<path style="fill:none;stroke:#252928;stroke-miterlimit:10;" d="M360.897,274.778c0,0-5.704,18.168-7.182,32.11"/>
								<polygon style="fill:#EEEEEE;" points="409.697,329.07 413.64,349.491 419.555,347.66 416.668,327.732 								"/>
							</g>
							<g>
								<g>
									<path style="fill:#D1DCF2;" d="M459.209,355.04l-18.27-34.049c0,0-0.539-0.417-2.666,0.193
										c-2.126,0.609-16.407,5.447-16.407,5.447l7.557,18.183l6.547,0.116c0,0,14.387,6.651,17.201,8.135
										C455.984,354.55,459.623,356.698,459.209,355.04z"/>
									<path style="fill:#252928;" d="M437.808,321.395c-0.866,0.248-3.748,1.198-6.86,2.236c0.972,2.325,3.219,5.976,6.943,7.065
										c2.971,0.869,6.006-0.134,7.567-0.92l-4.696-8.83C440.761,320.945,439.934,320.786,437.808,321.395z"/>
								</g>
								<g>
									<g>
										<g>
											<path style="fill:#252928;" d="M440.13,348.201c0.831-2.013,1.662-4.026,2.493-6.039c0.47-1.138-1.382-1.633-1.846-0.509
												c-0.831,2.013-1.662,4.026-2.493,6.039C437.814,348.83,439.665,349.326,440.13,348.201L440.13,348.201z"/>
										</g>
									</g>
									<g>
										<g>
											<path style="fill:#252928;" d="M444.825,349.977c0.764-1.782,1.529-3.564,2.293-5.346c0.48-1.12-1.168-2.096-1.653-0.966
												c-0.764,1.782-1.529,3.564-2.293,5.346C442.692,350.131,444.341,351.107,444.825,349.977L444.825,349.977z"/>
										</g>
									</g>
								</g>
							</g>
						</g>
					</g>
				</g>
				<g>
					<g>
						<g>
							<polygon style="fill:#FF6766;" points="327.98,180.072 331.674,188.622 326.579,187.592 							"/>
							<g>
								<path style="fill:#FDADA6;" d="M331.897,164.227l7.296-2.645c4.85-1.758,10.457,1.321,12.459,6.844l4.1,11.31
									c0.116,0.319,0.213,0.639,0.3,0.96c0.2,0.305,0.371,0.634,0.5,0.991l2.496,6.885l0.139,0.384l2.496,6.885
									c0.906,2.498-0.397,5.283-2.896,6.189l-2.894,1.049c-2.498,0.906-5.283-0.397-6.189-2.896l-2.209-6.093l-4.219,1.529
									c-4.851,1.758-10.457-1.321-12.459-6.844l-4.1-11.31C324.716,171.943,327.047,165.986,331.897,164.227z"/>
								<path style="fill:none;stroke:#1E0041;stroke-width:2;stroke-miterlimit:10;" d="M363.686,172.93
									c-1.133-3.187-4.455-4.882-7.418-3.785c-1.265,0.468-2.257,1.371-2.894,2.498l3.491,9.115
									c1.122,0.354,2.342,0.36,3.508-0.071C363.335,179.59,364.819,176.117,363.686,172.93z"/>
							</g>
							<path style="fill:#252928;" d="M346.638,149.611c-10.576-0.705-19.814,6.767-19.814,6.767s-6.036-5.232-10.045-1.329
								c-4.009,3.902,2.6,8.754,2.6,8.754s-8.774-3.701-12.05,1.242c-3.276,4.943-2.172,12.751,5.059,15.744
								c5.258,2.177,11.621-0.776,16.793-4.585c0.444-0.253,0.937-0.547,1.501-0.899c2.259-1.409,3.946-3.306,5.172-5.109
								c1.652-1.95,2.484-3.657,2.885-4.962c0.186,0.447,0.613,1.191,1.549,2.314c2.151,4.205,6.627,5.181,9.322,5.367
								c0.84,0.144,1.617,0.231,2.289,0.286c0.399,1.178,2.319,5.362,3.81,7.886c0.782,1.324,2.208,5.208,2.97,5.071
								c5.281-0.951,9.228-11.653,8.344-17.428C365.439,158.378,357.729,150.35,346.638,149.611z"/>
							<path style="fill:#252928;" d="M353.174,152.496c0,0-3.527-8.597,0.403-8.684c3.931-0.088,2.244,5.686,2.244,5.686
								s4.705-2.812,4.068-0.411C359.251,151.487,353.566,153.731,353.174,152.496z"/>
							<g>
								<path style="fill:#FDADA6;" d="M363.684,172.93c1.153,3.182-0.512,6.704-3.72,7.867c-3.208,1.163-6.743-0.474-7.897-3.656
									c-1.154-3.182,0.512-6.704,3.72-7.867C358.995,168.112,362.53,169.749,363.684,172.93z"/>
								<g>
									<g>
										<path style="fill:#252928;" d="M355.604,176.589c0.134,0.312-0.069-0.227-0.102-0.35
											c-0.098-0.366-0.151-0.742-0.133-1.122c0.066-1.359,1.102-2.032,2.325-2.36c0.855-0.229,0.492-1.557-0.366-1.327
											c-1.64,0.44-3.044,1.455-3.292,3.228c-0.124,0.887,0.028,1.805,0.379,2.625
											C354.764,178.095,355.949,177.395,355.604,176.589L355.604,176.589z"/>
									</g>
								</g>
							</g>
							<g>
								<path style="fill:#252928;" d="M338.834,178.012c0.403,1.113-0.172,2.343-1.285,2.746c-1.113,0.404-2.343-0.172-2.746-1.285
									c-0.404-1.113,0.172-2.343,1.285-2.746C337.201,176.323,338.43,176.899,338.834,178.012z"/>
								<path style="fill:#F48582;" d="M347.166,182.584c0,2.129-1.726,3.855-3.855,3.855c-2.129,0-3.855-1.726-3.855-3.855
									c0-2.129,1.726-3.855,3.855-3.855C345.44,178.729,347.166,180.455,347.166,182.584z"/>
								<g>
									<g>
										<path style="fill:#252928;" d="M333.208,193.306c1.905-0.464,3.235-1.887,4.061-3.612
											c0.346-0.722-0.732-1.357-1.079-0.631c-0.692,1.445-1.71,2.647-3.314,3.037
											C332.095,192.291,332.425,193.497,333.208,193.306L333.208,193.306z"/>
									</g>
								</g>
							</g>
						</g>
						<path style="fill:#252928;" d="M363.664,204.085l-9.379,3.133c-1.945,0.65-4.049-0.401-4.699-2.346l-0.502-1.504
							c-0.65-1.945,0.401-4.049,2.346-4.699l9.379-3.133c1.945-0.65,4.049,0.4,4.699,2.346l0.502,1.504
							C366.66,201.331,365.609,203.435,363.664,204.085z"/>
					</g>
					<path style="fill:#FFFFFF;" d="M345.546,272.877c13.872,3.239,39.289,3.146,57.762-6.156
						c-0.535-5.062-1.42-10.311-2.693-15.653c-7.61-31.929-25.905-54.923-40.862-51.358c-14.957,3.565-17.543,31.493-14.277,64.154
						C345.898,268.088,345.405,269.778,345.546,272.877z"/>
				</g>
				<g>
					<path style="fill:#FDADA6;" d="M352.599,267.162l-19.273-14.357c-4.354,4.879-8.907,7.058-21.862,13.945
						c-16.689,8.873-18.379,12.886-21.125,17.956c-2.746,5.07-3.908,13.978-3.274,14.929c0.634,0.951,2.007-0.247,3.486-7.535
						c0,0-1.62,8.133,0.176,8.873c1.054,0.434,1.974-2.915,2.554-5.756c-0.344,2.656-0.465,5.8,0.826,6.108
						c1.107,0.265,2.346-4.293,3.019-7.202c-0.543,2.753-1.198,6.955-0.132,6.955c1.584,0,2.641-10.774,8.133-14.259
						c5.493-3.486,5.915-3.803,25.033-7.5C340.803,277.262,347.94,272.061,352.599,267.162z"/>
					<path style="fill:#E2DAD7;" d="M367.869,204.431c-2.795-1.482-13.098-7.183-19.435,9.295
						c-6.338,16.478-4.859,24.928-11.196,34.012c-1.261,1.807-2.379,3.293-3.494,4.59l19.284,14.377
						c3.446-3.731,5.463-7.223,6.498-8.933c2.429-4.014,10.457-20.175,12.569-30.843
						C374.206,216.261,372.516,206.895,367.869,204.431z"/>
					<polygon style="fill:#252928;" points="331.252,252.596 353.609,271.292 357.623,266.011 333.364,249.78 					"/>
					<path style="fill:none;stroke:#252928;stroke-miterlimit:10;" d="M320.83,261.751c0,0,10.422-4.084,16.055-13.379
						c3.529-5.822,5.731-13.744,7.196-19.854"/>
				</g>
			</g>
		</g>
		<path style="fill:#D1DCF2;" d="M439.976,74.018"/>
	</g>
</g>
</svg>
