<svg width="13" height="16" viewBox="0 0 13 16" fill="none" xmlns="http://www.w3.org/2000/svg">
<path d="M12.4226 12.3423C11.868 11.3564 10.9597 10.2398 9.48092 9.60503C8.63518 10.1967 7.60774 10.5451 6.50011 10.5451C5.39187 10.5451 4.36443 10.1967 3.51866 9.60503C2.03993 10.2398 1.13158 11.3565 0.577313 12.3423C-0.158302 13.6498 0.418436 15.5 1.69065 15.5C2.9629 15.5 6.50014 15.5 6.50014 15.5C6.50014 15.5 10.037 15.5 11.3093 15.5C12.5815 15.5 13.1582 13.6498 12.4226 12.3423Z" fill="#00338D"/>
<path d="M6.50012 9.30784C8.6723 9.30784 10.4327 7.54687 10.4327 5.37497V4.43284C10.4327 2.26098 8.6723 0.5 6.50012 0.5C4.32761 0.5 2.56695 2.26098 2.56695 4.43287V5.375C2.56695 7.54687 4.32764 9.30784 6.50012 9.30784Z" fill="#00338D"/>
</svg>
